<?xml version="1.0" encoding="iso-8859-1"?>
<!-- Generator: Adobe Illustrator 19.2.1, SVG Export Plug-In . SVG Version: 6.00 Build 0)  -->
<svg version="1.1" id="Layer_1" xmlns="http://www.w3.org/2000/svg" xmlns:xlink="http://www.w3.org/1999/xlink" x="0px" y="0px"
	 viewBox="0 0 74 18" style="enable-background:new 0 0 74 18;" xml:space="preserve">
<g>
	<g>
		<g>
			<path style="fill-rule:evenodd;clip-rule:evenodd;fill:#646363;" d="M24,4h-6V0h-4v18h4V6h4v12h4V6h-2V4z M34,6h-2V4h-4v14h4V8h6
				V4h-4V6z M52,14h-2v2h2V14z M50,4h-8v2h-2v10h2v2h8v-2h-6v-4h4h3h1V6h-2V4z M48,10h-4V6h4V10z M60,2h4V0h-6v2h-2v2h-2v2h2v12h4V6
				h2V4h-2V2z M74,8V6h-2v2H74z M66,4v2h-2v4h2v2h2v2h2v2h-4v2h6v-2h2v-4h-2v-2h-2V8h-2V6h4V4H66z M64,14v2h2v-2H64z M0,8h2V6H0V8z
				 M10,4H2v2h6v4H2v2H0v4h2v2h10V6h-2V4z M8,16H4v-4h4V16z"/>
		</g>
	</g>
</g>
</svg>
