<?xml version="1.0" encoding="utf-8"?>
<!-- Generator: Adobe Illustrator 19.2.1, SVG Export Plug-In . SVG Version: 6.00 Build 0)  -->
<svg version="1.1" id="Layer_1" xmlns="http://www.w3.org/2000/svg" xmlns:xlink="http://www.w3.org/1999/xlink" x="0px" y="0px"
	 viewBox="0 0 148 36" style="enable-background:new 0 0 148 36;" xml:space="preserve">
<style type="text/css">
	.st0{fill:#FFFFFF;}
	.st1{fill:#FF6212;}
</style>
<path id="Rectangle_20_copy_5" class="st0" d="M44,36V12h-8v24h-8V0h8v8h12v4h4v24H44z M64,16v20h-8V8h8v4h4V8h8v8H64z M104,28v4h-4
	v-4H104z M84,36v-4h-4V12h4V8h16v4h4v12H88v8h12v4H84z M96,20v-8h-8v8H96z M120,4v4h4v4h-4v24h-8V12h-4V8h4V4h4V0h12v4H120z M140,16
	v4h4v4h4v8h-4v4h-12v-4h8v-4h-4v-4h-4v-4h-4v-8h4V8h12v4h-8v4H140z M128,28h4v4h-4V28z M148,16h-4v-4h4V16z"/>
<path id="Rectangle_20_copy_7" class="st1" d="M4,36v-4H0v-8h4v-4h12v-8H4V8h16v4h4v24H4z M8,24v8h8v-8H8z M0,16v-4h4v4H0z"/>
</svg>
