<?xml version="1.0" encoding="utf-8"?>
<svg xmlns="http://www.w3.org/2000/svg" xmlns:xlink="http://www.w3.org/1999/xlink" version="1.1" x="0px" y="0px" viewBox="0 0 70 70" style="enable-background:new 0 0 70 70;" xml:space="preserve">
<g style="fill: #fff;">
    <path class="st0" d="M55.9,47.7c-0.1-0.2-0.1-0.3-0.3-0.4l-10.5-9.7c-0.4,0.6-0.7,1.1-1.2,1.6l10,9.3c0,0.3,0,1-0.8,1.8   c-0.8,0.8-1.5,0.8-1.8,0.8l-10-9.2c-0.5,0.4-1.1,0.8-1.6,1.2l10.5,9.7c0.1,0.1,0.2,0.2,0.3,0.2c0.2,0.1,0.6,0.1,1,0.1   c0.9,0,2-0.3,3.1-1.4C56.3,50.2,56.2,48.4,55.9,47.7z"></path>
    <path class="st0" d="M30,44c-8.8,0-16-7.2-16-16s7.2-16,16-16s16,7.2,16,16S38.8,44,30,44z M30,14c-7.7,0-14,6.3-14,14    s6.3,14,14,14s14-6.3,14-14S37.7,14,30,14z"></path>
</g>
</svg>
