<?xml version="1.0" encoding="utf-8"?>
<!-- Generator: Adobe Illustrator 16.0.0, SVG Export Plug-In . SVG Version: 6.00 Build 0)  -->
<!DOCTYPE svg PUBLIC "-//W3C//DTD SVG 1.1//EN" "http://www.w3.org/Graphics/SVG/1.1/DTD/svg11.dtd">
<svg version="1.1" id="Layer_1" xmlns="http://www.w3.org/2000/svg" xmlns:xlink="http://www.w3.org/1999/xlink" x="0px" y="0px"
	 width="50px" height="50px" viewBox="0 0 50 50" style="enable-background:new 0 0 50 50;" xml:space="preserve">
<path style="fill-rule:evenodd;clip-rule:evenodd;fill:#FFFFFF;" d="M21,6c0-0.552,0.448-1,1-1h6c0.553,0,1,0.448,1,1
	c0,0.552-0.447,1-1,1h-6C21.448,7,21,6.552,21,6z M25,43c-0.552,0-1,0.447-1,1s0.448,1,1,1c0.553,0,1-0.447,1-1S25.553,43,25,43z
	 M40,5v40c0,2.206-1.795,4-3.996,4H31H19h-5.003C11.792,49,10,47.203,10,45V29v-6v-6v-6V5c0-2.206,1.795-4,3.997-4H16h18h2.004
	C38.209,1,40,2.797,40,5z M12,9h1h3h18h4V5c0-1.1-0.896-2-1.996-2H34H16h-2.003C12.898,3,12,3.899,12,5V9z M38,41h-7H19h-6h-1v4
	c0,1.1,0.896,2,1.997,2H19h12h5.004C37.102,47,38,46.102,38,45V41z M38,23V11h-4H16h-3h-1v6v6v6v10h1h6h12h7V23z M16,16h-1v1v1h1h15
	h2h1v-2h-1H16z M16,22h-1v1v1h1h9h1v-1v-1h-1H16z"/>
</svg>
