<?xml version="1.0" encoding="utf-8"?>
<!-- Generator: Adobe Illustrator 16.0.0, SVG Export Plug-In . SVG Version: 6.00 Build 0)  -->
<!DOCTYPE svg PUBLIC "-//W3C//DTD SVG 1.1//EN" "http://www.w3.org/Graphics/SVG/1.1/DTD/svg11.dtd">
<svg version="1.1" id="Layer_1" xmlns="http://www.w3.org/2000/svg" xmlns:xlink="http://www.w3.org/1999/xlink" x="0px" y="0px"
	 width="50px" height="50px" viewBox="0 0 50 50" style="enable-background:new 0 0 50 50;" xml:space="preserve">
<path style="fill-rule:evenodd;clip-rule:evenodd;fill:#FFFFFF;" d="M46,43h-5v-8.001C41,33.342,39.658,32,38.003,32h-3.006
	C33.348,32,32,33.344,32,34.999V43h-3V20.993C29,19.339,27.658,18,26.003,18h-3.006C21.347,18,20,19.34,20,20.993V43h-3V8.006
	C17,6.342,15.658,5,14.003,5h-3.006C9.347,5,8,6.346,8,8.006V43H4c-0.552,0-1,0.447-1,1s0.448,1,1,1h4h2h5h2h3h2h5h2h3h2h5h2h5
	c0.553,0,1-0.447,1-1S46.553,43,46,43z M10,43V8.006C10,7.452,10.451,7,10.997,7h3.006C14.554,7,15,7.447,15,8.006V43H10z M22,43
	V20.993C22,20.448,22.449,20,22.997,20h3.006C26.555,20,27,20.444,27,20.993V43H22z M34,43v-8.001C34,34.449,34.449,34,34.997,34
	h3.006C38.555,34,39,34.447,39,34.999V43H34z"/>
</svg>
