<?xml version="1.0" encoding="utf-8"?>
<!-- Generator: Adobe Illustrator 16.0.0, SVG Export Plug-In . SVG Version: 6.00 Build 0)  -->
<!DOCTYPE svg PUBLIC "-//W3C//DTD SVG 1.1//EN" "http://www.w3.org/Graphics/SVG/1.1/DTD/svg11.dtd">
<svg version="1.1" id="Layer_1" xmlns="http://www.w3.org/2000/svg" xmlns:xlink="http://www.w3.org/1999/xlink" x="0px" y="0px"
	 width="50px" height="50px" viewBox="0 0 50 50" style="enable-background:new 0 0 50 50;" xml:space="preserve">
<path style="fill-rule:evenodd;clip-rule:evenodd;fill:#FFFFFF;" d="M17.818,23.707c0.391-0.391,0.391-1.023,0-1.414
	s-1.023-0.391-1.414,0L15,23.697l-3.541,3.54c-0.391,0.392-0.391,1.024,0,1.415L15,32.191l1.404,1.405
	c0.391,0.39,1.023,0.39,1.414,0c0.391-0.392,0.391-1.024,0-1.413L15,29.364l-1.42-1.42L15,26.525L17.818,23.707z M27.924,19.068
	c-0.322-0.126-0.659-0.058-0.924,0.125c-0.158,0.109-0.297,0.25-0.372,0.442L26.485,20l-3.375,8.623l-3.042,7.775
	c-0.201,0.514,0.053,1.094,0.567,1.295s1.095-0.053,1.296-0.566l1.179-3.016L27,24.172l1.49-3.808
	c0.047-0.12,0.063-0.243,0.063-0.364C28.554,19.6,28.318,19.223,27.924,19.068z M33.707,22.293
	c-0.044-0.043-0.099-0.064-0.147-0.098c-0.39-0.269-0.92-0.25-1.267,0.098c-0.391,0.391-0.391,1.023,0,1.414l1.267,1.267l2.971,2.97
	l-2.971,2.972l-1.267,1.268c-0.391,0.389-0.391,1.021,0,1.413c0.347,0.347,0.877,0.368,1.267,0.097
	c0.049-0.032,0.104-0.053,0.147-0.097l4.945-4.945c0.391-0.391,0.391-1.023,0-1.415L33.707,22.293z M15,11c0.553,0,1-0.447,1-1
	c0-0.553-0.447-1-1-1s-1,0.447-1,1C14,10.553,14.447,11,15,11z M12,11c0.553,0,1-0.447,1-1c0-0.553-0.447-1-1-1s-1,0.447-1,1
	C11,10.553,11.447,11,12,11z M9,11c0.553,0,1-0.447,1-1c0-0.553-0.447-1-1-1s-1,0.447-1,1C8,10.553,8.447,11,9,11z M45.999,8
	c-0.004-1.661-1.346-3-3.003-3H21h-3h-3H9H7.004C6.65,5,6.315,5.072,6,5.186C4.842,5.599,4.004,6.697,4.001,8
	C4.001,8.002,4,8.005,4,8.007V16v4v21.993C4,43.657,5.345,45,7.004,45h35.992C44.65,45,46,43.654,46,41.993V20V8.007
	C46,8.005,45.999,8.002,45.999,8z M7.004,7H9h6h3h3h21.996c0.553,0,0.999,0.445,1.003,1C43.999,8.002,44,8.004,44,8.007V13H21h-3h-3
	H9H6V8.007C6,8.004,6.001,8.002,6.001,8C6.005,7.449,6.455,7,7.004,7z M44,41.993C44,42.549,43.547,43,42.996,43H7.004
	C6.448,43,6,42.553,6,41.993V20v-4v-1h3h6h3h3h12.56H44v5V41.993z"/>
</svg>
