<?xml version="1.0" encoding="utf-8"?>
<!-- Generator: Adobe Illustrator 16.0.0, SVG Export Plug-In . SVG Version: 6.00 Build 0)  -->
<!DOCTYPE svg PUBLIC "-//W3C//DTD SVG 1.1//EN" "http://www.w3.org/Graphics/SVG/1.1/DTD/svg11.dtd">
<svg version="1.1" id="Layer_1" xmlns="http://www.w3.org/2000/svg" xmlns:xlink="http://www.w3.org/1999/xlink" x="0px" y="0px"
	 width="50px" height="50px" viewBox="0 0 50 50" style="enable-background:new 0 0 50 50;" xml:space="preserve">
<g>
	<path style="fill:#FFFFFF;" d="M16,17v-2h-0.997C12.243,15,10,12.756,10,10c0-2.765,2.234-5,5.003-5h17.994
		C35.758,5,38,7.244,38,10c0,2.765-2.234,5-5.003,5H27v2h5.997C36.873,17,40,13.866,40,10c0-3.858-3.135-7-7.003-7H15.003
		C11.127,3,8,6.134,8,10c0,3.858,3.135,7,7.003,7H16z"/>
	<path style="fill:#FFFFFF;" d="M37,26c-0.768,0-1,0.289-2,0.766v-0.055v-1.702C35,23.336,34.157,22,32.5,22
		c-0.771,0-1.227,0.293-1.758,0.775C30.623,21.214,28.954,20,27.375,20C26.607,20,26,20.29,25,20.768v-0.057V17v-2.507
		C25,12.568,23.43,11,21.5,11c-1.925,0-3.5,1.564-3.5,3.493V17v9.904l-2.295-2.803c-0.587-0.586-1.098-0.879-1.863-0.879
		c-0.762,0-1.395,0.289-1.979,0.866c-1.152,1.165-1.271,3.218-0.329,4.575l8.745,12.562c0.025,0.035,0.067,0.072,0.095,0.107
		C22.25,44.714,25.362,47,29.5,47C35.572,47,40,42.078,40,36.008v-0.004v-0.003V29C40,27.342,38.657,26,37,26z M38,36.008
		C38,40.967,34.466,45,29.508,45c-3.268,0-6.031-1.775-7.619-4.637c-0.046-0.083,0.023-0.168-0.035-0.243l0.038-0.034l-8.682-12.562
		c-0.389-0.561-0.291-1.545,0.17-2.012c0.189-0.187,0.445-0.289,0.708-0.289c0.264,0,0.517,0.104,0.707,0.295l2.805,2.801
		c0.383,0.383,0.895,0.586,1.415,0.586c0.258,0,0.011-0.051,0.259-0.152C20.021,28.441,20,27.713,20,26.904V14.493
		C20,13.67,20.677,13,21.5,13c0.822,0,1.5,0.67,1.5,1.493v6.275v9.943c0,0.553,0.447,1,1,1s1-0.447,1-1v-7.943
		c1,0,1.463-0.176,1.837-0.512C26.967,22.139,27.438,22,27.75,22c0.529,0,1.082,0.398,1.122,0.926
		c0.011,0.137-0.388,0.262-0.352,0.391C28.469,23.438,28,23.57,28,23.711v8c0,0.553,0.447,1,1,1s1-0.447,1-1v-6.938
		c1-0.002,1.461-0.178,1.834-0.516C31.964,24.141,31.936,24,32.25,24c0.561,0,0.75,0.443,0.75,1.009v1.702v0.055v5.945
		c0,0.553,0.447,1,1,1s1-0.447,1-1v-3.945c1,0,1.46-0.176,1.834-0.51C36.964,28.139,36.936,28,37.25,28c0.552,0,0.75,0.448,0.75,1
		V36.008z"/>
</g>
</svg>
