<?xml version="1.0" encoding="utf-8"?>
<!-- Generator: Adobe Illustrator 16.0.0, SVG Export Plug-In . SVG Version: 6.00 Build 0)  -->
<!DOCTYPE svg PUBLIC "-//W3C//DTD SVG 1.1//EN" "http://www.w3.org/Graphics/SVG/1.1/DTD/svg11.dtd">
<svg version="1.1" id="Layer_1" xmlns="http://www.w3.org/2000/svg" xmlns:xlink="http://www.w3.org/1999/xlink" x="0px" y="0px"
	 width="50px" height="50px" viewBox="0 0 50 50" style="enable-background:new 0 0 50 50;" xml:space="preserve">
<path style="fill-rule:evenodd;clip-rule:evenodd;fill:#FFFFFF;" d="M44.856,37.674l-2.668-2.668l-0.598-0.598L39.282,32.1
	c-0.911-0.912-2.268-1.098-3.368-0.574l-2.2-2.201c0.724-0.926,1.338-1.939,1.81-3.031c0.221-0.512,0.405-1.038,0.563-1.578
	c0.363-1.235,0.565-2.538,0.565-3.891C36.652,13.188,30.462,7,22.826,7C15.189,7,9,13.188,9,20.824
	c0,7.635,6.189,13.823,13.826,13.823c1.899,0,3.708-0.383,5.355-1.076c0.376-0.156,0.74-0.336,1.099-0.525
	c1.142-0.604,2.185-1.365,3.107-2.252l2.128,2.129c-0.525,1.1-0.338,2.453,0.576,3.367l2.907,2.906l0.388,0.389l2.279,2.279
	c1.159,1.158,3.04,1.162,4.196,0.006C46.024,40.707,46.018,38.836,44.856,37.674 M29.28,30.754c-0.814,0.529-1.7,0.959-2.636,1.277
	c-1.2,0.41-2.481,0.641-3.818,0.641c-6.545,0-11.851-5.305-11.851-11.848S16.281,8.975,22.826,8.975s11.852,5.305,11.852,11.849
	c0,0.773-0.08,1.528-0.223,2.261c-0.22,1.135-0.603,2.212-1.123,3.208C32.386,28.105,30.985,29.643,29.28,30.754 M43.466,40.473
	c-0.385,0.383-1.014,0.383-1.402-0.006l-0.882-0.883l-1.786-1.785l-2.907-2.904c-0.252-0.252-0.325-0.598-0.255-0.916l0.734-0.734
	c0.319-0.07,0.667,0.002,0.917,0.252l2.907,2.906l0.799,0.799l1.869,1.869C43.854,39.463,43.854,40.084,43.466,40.473"/>
</svg>
