<?xml version="1.0" encoding="utf-8"?>
<!-- Generator: Adobe Illustrator 16.0.0, SVG Export Plug-In . SVG Version: 6.00 Build 0)  -->
<!DOCTYPE svg PUBLIC "-//W3C//DTD SVG 1.1//EN" "http://www.w3.org/Graphics/SVG/1.1/DTD/svg11.dtd">
<svg version="1.1" id="Layer_1" xmlns="http://www.w3.org/2000/svg" xmlns:xlink="http://www.w3.org/1999/xlink" x="0px" y="0px"
	 width="50px" height="50px" viewBox="0 0 50 50" style="enable-background:new 0 0 50 50;" xml:space="preserve">
<path style="fill-rule:evenodd;clip-rule:evenodd;fill:#FFFFFF;" d="M45,4H19h-3h-3H7H5C4.648,4,4.314,4.072,4,4.185
	c-1.159,0.414-2,1.51-2,2.813V15v27.002C2,43.659,3.343,45,5,45h40c1.648,0,3-1.342,3-2.998V42V13V6.998C48,5.341,46.656,4,45,4z
	 M4,6.998C4,6.451,4.452,6,5,6h2h6h3h3h26c0.553,0,1,0.446,1,0.998V12H19h-3h-3H7H4V6.998z M46,42.002C46,42.549,45.548,43,45,43H5
	c-0.553,0-1-0.445-1-0.998V42V15v-1h3h6h3h3h27v28V42.002z M40,18c-1.654,0-3,1.346-3,3c0,0.469,0.117,0.907,0.311,1.302
	c-0.037,0.035-0.08,0.057-0.11,0.098l-5.241,6.989l-4.191-5.029c-0.428-0.514-1.229-0.471-1.6,0.085l-5.322,7.986l-4.139-4.138
	c-0.412-0.412-1.087-0.387-1.466,0.057l-6,7C8.881,35.77,8.93,36.4,9.35,36.76s1.05,0.311,1.409-0.109l5.298-6.18l4.236,4.236
	c0.445,0.446,1.189,0.373,1.539-0.152l5.257-7.885l4.144,4.971c0.412,0.496,1.18,0.476,1.567-0.041l5.923-7.896
	C39.111,23.888,39.541,24,40,24c1.654,0,3-1.346,3-3C43,19.346,41.654,18,40,18z M40,22c-0.552,0-1-0.449-1-1s0.448-1,1-1
	s1,0.449,1,1S40.552,22,40,22z M7,10c-0.552,0-1-0.448-1-1c0-0.552,0.448-1,1-1s1,0.448,1,1C8,9.552,7.552,10,7,10z M9,9
	c0-0.552,0.448-1,1-1s1,0.448,1,1c0,0.552-0.448,1-1,1S9,9.552,9,9z M12,9c0-0.552,0.448-1,1-1s1,0.448,1,1c0,0.552-0.448,1-1,1
	S12,9.552,12,9z"/>
</svg>
